<svg width="38" height="37" viewBox="0 0 38 37" fill="none" xmlns="http://www.w3.org/2000/svg">
<g clip-path="url(#clip0)">
<path d="M38 18.9247C38 17.6671 37.8932 16.4027 37.6653 15.1655H19.3811V22.2895H29.8516C29.4171 24.5872 28.021 26.6197 25.9768 27.9113V32.5337H32.2235C35.8917 29.3116 38 24.5532 38 18.9247Z" fill="#4285F4"/>
<path d="M19.3812 36.9999C24.6093 36.9999 29.0183 35.3617 32.2307 32.5338L25.984 27.9114C24.246 29.0398 22.0024 29.6788 19.3883 29.6788C14.3311 29.6788 10.0432 26.4227 8.5047 22.0449H2.05859V26.8101C5.34931 33.0572 12.0518 36.9999 19.3812 36.9999Z" fill="#34A853"/>
<path d="M8.49737 22.0452C7.68537 19.7476 7.68537 17.2596 8.49737 14.962V10.1968H2.05838C-0.69101 15.4242 -0.69101 21.583 2.05838 26.8104L8.49737 22.0452Z" fill="#FBBC04"/>
<path d="M19.3812 7.32093C22.1448 7.28014 24.8159 8.27261 26.8174 10.0944L32.3518 4.81257C28.8473 1.67202 24.1962 -0.0545999 19.3812 -0.00021815C12.0518 -0.00021815 5.34932 3.94246 2.05859 10.1964L8.49758 14.9616C10.029 10.577 14.324 7.32093 19.3812 7.32093Z" fill="#EA4335"/>
</g>
<defs>
<clipPath id="clip0">
<rect width="38" height="37" fill="white"/>
</clipPath>
</defs>
</svg>
