<svg width="21" height="23" viewBox="0 0 21 23" fill="none" xmlns="http://www.w3.org/2000/svg">
<path fill-rule="evenodd" clip-rule="evenodd" d="M12.3812 17.1124C11.1175 18.0491 9.59943 18.595 7.96659 18.595C3.56676 18.595 0 14.6309 0 9.74088C0 4.85086 3.56676 0.886719 7.96659 0.886719C12.3664 0.886719 15.9332 4.85086 15.9332 9.74088C15.9332 11.2813 15.5792 12.7298 14.9568 13.9915L20.2045 18.4088C21.0638 19.1321 21.2476 20.4708 20.6151 21.3989C19.9827 22.3271 18.7734 22.4931 17.9141 21.7699L12.3812 17.1124ZM12.8983 9.74088C12.8983 12.768 10.6903 15.222 7.96659 15.222C5.24289 15.222 3.03489 12.768 3.03489 9.74088C3.03489 6.71372 5.24289 4.25973 7.96659 4.25973C10.6903 4.25973 12.8983 6.71372 12.8983 9.74088Z" fill="#FF5A5F"/>
</svg>
